<?xml version="1.0" encoding="utf-8"?>
<!-- Generator: Adobe Illustrator 16.0.3, SVG Export Plug-In . SVG Version: 6.00 Build 0)  -->
<!DOCTYPE svg PUBLIC "-//W3C//DTD SVG 1.1//EN" "http://www.w3.org/Graphics/SVG/1.1/DTD/svg11.dtd">
<svg version="1.1" id="Ebene_1" xmlns="http://www.w3.org/2000/svg" xmlns:xlink="http://www.w3.org/1999/xlink" x="0px" y="0px"
	 width="186.09px" height="108.715px" viewBox="0 0 186.09 108.715" enable-background="new 0 0 186.09 108.715"
	 xml:space="preserve">
<g>
	<path fill="#4B4B4D" stroke="#4B4B4D" stroke-width="1.467" stroke-miterlimit="3.864" d="M32.114,95.648
		c0,3.127-2.521,5.549-5.548,5.549H13.649c-3.027,0-5.449-2.422-5.449-5.549V72.441c0-3.027,2.422-5.549,5.55-5.549h12.815
		c3.027,0,5.548,2.521,5.548,5.549V95.648z M39.581,96.656V71.23c0-6.156-5.348-11.098-11.604-11.098H12.337
		c-6.255,0-11.604,4.942-11.604,11.098v25.426c0,6.156,4.945,11.303,11.2,11.303h16.447
		C34.536,107.959,39.581,102.813,39.581,96.656z"/>
	<path fill="#4B4B4D" stroke="#4B4B4D" stroke-width="1.467" stroke-miterlimit="3.864" d="M83.039,64.067v-1.109
		c0-1.716-1.413-2.825-3.027-2.825H50.245c-1.613,0-2.825,1.21-2.825,2.723v42.077c0,1.715,1.312,3.027,3.027,3.027h1.413
		c1.615,0,3.027-1.313,3.027-3.027V87.576H78.51c1.615,0,3.027-1.109,3.027-2.824v-1.109c0-1.715-1.412-2.826-3.027-2.826H54.887
		V66.893h25.125C81.626,66.893,83.039,65.781,83.039,64.067z"/>
	<path fill="#4B4B4D" stroke="#4B4B4D" stroke-width="1.467" stroke-miterlimit="3.864" d="M140.225,104.972V63.141
		c0-1.705-1.412-3.008-3.027-3.008h-1.412c-1.715,0-3.027,1.303-3.027,3.008v41.831c0,1.704,1.313,3.01,3.027,3.01h1.412
		C138.813,107.981,140.225,106.676,140.225,104.972z"/>
	<path fill="#4B4B4D" stroke="#4B4B4D" stroke-width="1.467" stroke-miterlimit="3.864" d="M185.344,96.656v-6.76
		c0-6.053-4.207-9.637-8.949-9.637h-16.246c-3.631,0-5.578-2.168-5.578-4.488v-3.732c0-3.027,2.019-5.146,5.752-5.146h20.465
		c1.613,0,3.025-1.111,3.025-2.826v-1.109c0-1.716-1.412-2.825-3.127-2.825h-22.08c-7.465,0-11.502,6.356-11.502,10.495v6.256
		c0,6.053,4.938,10.613,9.881,10.613c2.248,0.061,14.08-0.031,16.548,0c3.43,0,4.347,2.098,4.347,3.914v4.037
		c0,2.219-0.908,5.75-4.339,5.75H150.03c-1.715,0-3.026,1.111-3.026,2.826v1.109c0,1.717,1.312,2.826,3.026,2.826h24.923
		C181.209,107.959,185.344,103.721,185.344,96.656z"/>
	<path fill="#4B4B4D" stroke="#4B4B4D" stroke-width="1.467" stroke-miterlimit="3.864" d="M125.691,64.067v-1.11
		c0-1.715-1.413-2.824-3.027-2.824H92.898c-1.614,0-2.825,1.21-2.825,2.724v42.076c0,1.715,1.311,3.026,3.027,3.026h1.413
		c1.615,0,3.027-1.312,3.027-3.026V87.576h23.623c1.613,0,3.025-1.109,3.025-2.824v-1.109c0-1.715-1.412-2.826-3.025-2.826H97.541
		V66.893h25.123C124.278,66.893,125.691,65.781,125.691,64.067z"/>
	<polygon fill="#C6C7C8" points="40.326,39.197 40.326,48.995 32.271,48.995 8.109,48.995 0.055,48.995 0.055,39.197 0.055,9.8 
		0.055,0 8.109,0 32.271,0 40.326,0 40.326,9.8 	"/>
	<polygon fill="#009EE0" points="140.944,39.195 140.944,48.994 139.163,48.994 133.816,48.994 132.035,48.994 132.035,39.195 
		132.035,9.799 132.035,0 133.816,0 139.163,0 140.944,0 140.944,9.799 	"/>
	<polygon fill="#C6C7C8" points="83.791,39.197 83.791,48.995 76.368,48.995 54.097,48.995 46.673,48.995 46.673,39.197 46.673,9.8 
		46.673,0 54.097,0 76.368,0 83.791,0 83.791,9.8 	"/>
	<polygon fill="#C6C7C8" points="126.417,39.197 126.417,48.995 119,48.995 96.751,48.995 89.334,48.995 89.334,39.197 89.334,9.8 
		89.334,0 96.751,0 119,0 126.417,0 126.417,9.8 	"/>
	<polygon fill="#C6C7C8" points="186.09,39.196 186.09,48.995 178.145,48.995 154.313,48.995 146.368,48.995 146.368,39.196 
		146.368,9.799 146.368,0 154.313,0 178.145,0 186.09,0 186.09,9.799 	"/>
	<rect x="185.5" y="102.551" fill="none" width="0.581" height="0.302"/>
</g>
</svg>
